<?xml version="1.0" encoding="utf-8"?>
<svg width="80" height="80" viewBox="0 0 80 80" fill="none" xmlns="http://www.w3.org/2000/svg">
  <g>
    <path d="M5 0L75 0C77.7618 0 80 2.2382 80 5L80 75C80 77.7618 77.7618 80 75 80L5 80C2.2382 80 0 77.7618 0 75L0 5C0 2.2382 2.2382 0 5 0L5 0Z" fill="currentColor" stroke-width="3" stroke="currentColor" />
    <path d="M50 5.83359C50 5.83359 15.2687 50 15.2687 50L0 30.5835L4.58735 24.7497L15.2687 38.3329L45.4125 0C45.4125 0 50 5.83359 50 5.83359Z" fill="#FFFFFF" fill-rule="evenodd" transform="translate(15 13)" />
  </g>
</svg>
